<svg width="40" height="40" viewBox="0 0 40 40" fill="none" xmlns="http://www.w3.org/2000/svg">
<path d="M37.4886 19.5318L37.4915 19.5368C37.5872 19.702 37.649 19.8846 37.6733 20.0739C37.6976 20.2632 37.684 20.4555 37.6332 20.6395L37.632 20.644C37.1555 22.4132 35.668 25.8834 31.0308 28.6546C26.3781 31.4351 22.2677 31.4375 20 31.4375H19.9986C17.7298 31.4375 13.6146 31.4375 8.96643 28.6549C4.33154 25.8803 2.84105 22.4126 2.36474 20.6454L2.36389 20.6423C2.31341 20.4582 2.30012 20.2658 2.3248 20.0765C2.34949 19.8872 2.41164 19.7046 2.50764 19.5396L2.50767 19.5396L2.51125 19.5333C2.60105 19.3754 2.72137 19.237 2.86521 19.1261C3.00818 19.0158 3.17153 18.935 3.34585 18.8881C4.49561 18.5946 5.68654 18.4962 6.8689 18.5973L7.89067 18.6846L7.66425 17.6844C6.97008 14.6179 7.4258 12.213 7.87291 10.8308L7.87292 10.8308L7.874 10.8275C7.9842 10.4812 8.21946 10.1885 8.53388 10.0063C8.84754 9.82465 9.21752 9.76608 9.57191 9.84193C11.1445 10.1947 12.6334 10.8506 13.9552 11.7729L14.6909 12.2863L15.0657 11.4711C15.9904 9.46026 17.3873 7.70265 19.1375 6.34797C19.3862 6.16179 19.6885 6.06113 19.9992 6.06113C20.3099 6.06113 20.6122 6.16182 20.8609 6.34805C22.6121 7.70208 24.0096 9.45976 24.9341 11.4711L25.3089 12.2864L26.0448 11.7729C27.3661 10.8508 28.8545 10.1949 30.4266 9.8419C30.7811 9.76591 31.1513 9.82433 31.4652 10.0059C31.7799 10.1878 32.0155 10.4805 32.1262 10.8267L32.127 10.8293C32.5741 12.2114 33.0298 14.6163 32.3356 17.6829L32.1092 18.683L33.131 18.5957C34.3134 18.4947 35.5043 18.593 36.6541 18.8866C36.8284 18.9334 36.9917 19.0143 37.1347 19.1245C37.2785 19.2354 37.3988 19.3739 37.4886 19.5318ZM25.8734 12.3543L25.4484 12.6748L25.6106 13.1817C26.1724 14.9374 26.4515 16.7712 26.4375 18.6146H26.4374V18.6203C26.4374 22.1961 25.5137 24.8913 24.3762 26.8717L25.512 27.817C27.3181 26.2831 28.8519 24.4551 30.0488 22.4101L30.0488 22.4101L30.0517 22.4051C33.0488 17.1927 32.4391 13.0189 31.7708 10.9443C31.6896 10.6874 31.5163 10.4696 31.2842 10.3325L30.9029 10.9783L31.2842 10.3325C31.0509 10.1948 30.7748 10.1485 30.5093 10.2027L30.5008 10.2044L30.4924 10.2063C28.8185 10.5885 27.2443 11.3205 25.8734 12.3543ZM8.70883 10.3377L8.70882 10.3377C8.47838 10.4765 8.30729 10.6953 8.22805 10.9521C7.55997 13.0236 6.95287 17.1958 9.94506 22.4004L9.94504 22.4004L9.94788 22.4052C11.1443 24.4507 12.6783 26.2789 14.4849 27.8124L15.6204 26.8667C14.4863 24.8947 13.5624 22.1964 13.5624 18.6203H13.5625L13.5624 18.6146C13.5484 16.7712 13.8275 14.9374 14.3893 13.1817L14.5515 12.6748L14.1265 12.3543C12.7556 11.3205 11.1814 10.5885 9.50752 10.2063L9.4976 10.2041L9.48762 10.2021C9.22019 10.1486 8.94244 10.197 8.70883 10.3377ZM3.45824 19.2393L3.44181 19.2434L3.42558 19.2482C3.17417 19.3228 2.96145 19.4918 2.83185 19.7196C2.7612 19.8421 2.71539 19.9773 2.6971 20.1176L3.4408 20.2146L2.6971 20.1176C2.67862 20.2593 2.68857 20.4032 2.72634 20.5409C3.21457 22.3517 4.7022 25.6678 9.1566 28.3299C11.0283 29.4673 13.0855 30.2669 15.2341 30.692L15.8105 29.3423C13.2824 27.5682 11.1708 25.265 9.62231 22.5927C9.06063 21.6209 8.58646 20.6011 8.2054 19.5454L8.05493 19.1285L7.61713 19.0592C6.23275 18.8402 4.8185 18.9015 3.45824 19.2393ZM19.564 30.7447L19.9964 31.0535L20.4311 30.748C21.9324 29.6933 26.0624 26.0955 26.0624 18.6203C26.0624 11.5378 22.3014 7.90397 20.6392 6.64975L20.6374 6.64844C20.4535 6.5105 20.2298 6.43594 20 6.43594C19.7701 6.43594 19.5464 6.5105 19.3624 6.64844L19.3607 6.64975C17.6985 7.90397 13.9374 11.5378 13.9374 18.6203C13.9374 26.0529 18.0891 29.6912 19.564 30.7447ZM37.1734 19.7298C37.044 19.5 36.8303 19.3295 36.5774 19.2544L36.5618 19.2498L36.5461 19.2459C35.1852 18.9053 33.7697 18.8418 32.3838 19.059L31.9463 19.1276L31.795 19.5438C31.4114 20.5996 30.9346 21.6191 30.3702 22.5904L30.3698 22.5912C28.8213 25.2634 26.7097 27.5666 24.1816 29.3408L24.7569 30.6906C26.9071 30.2685 28.9662 29.4715 30.8403 28.3361C34.8722 25.9208 36.4732 22.975 37.1027 21.1H37.113L37.2702 20.5593C37.3103 20.4211 37.3223 20.2763 37.3055 20.1333C37.2887 19.9914 37.2438 19.8542 37.1734 19.7298Z" fill="#E5641E" stroke="#E5641E" stroke-width="1.5"/>
</svg>
