<svg width="40" height="40" viewBox="0 0 40 40" fill="none" xmlns="http://www.w3.org/2000/svg">
<path d="M32.5 7.81248C30.5474 7.81123 28.6183 8.23791 26.8484 9.06248C24.5562 5.0156 20.5984 3.00154 20.4187 2.91091C20.2887 2.84599 20.1453 2.81219 20 2.81219C19.8547 2.81219 19.7113 2.84599 19.5813 2.91091C19.4031 3.00154 15.4437 5.0156 13.1516 9.06248C11.3817 8.23791 9.45255 7.81123 7.5 7.81248C7.25136 7.81248 7.0129 7.91125 6.83709 8.08706C6.66127 8.26288 6.5625 8.50134 6.5625 8.74998V15C6.56699 18.3999 7.85863 21.6721 10.1777 24.1583C12.4967 26.6446 15.6711 28.1607 19.0625 28.4015V34.7328L12.9187 31.6609C12.6962 31.5499 12.4387 31.5317 12.2028 31.6106C11.9669 31.6894 11.772 31.8587 11.6609 32.0812C11.5499 32.3038 11.5318 32.5613 11.6106 32.7972C11.6894 33.0331 11.8587 33.228 12.0813 33.339L19.5813 37.089C19.7113 37.154 19.8547 37.1878 20 37.1878C20.1453 37.1878 20.2887 37.154 20.4187 37.089L27.9187 33.339C28.0289 33.284 28.1272 33.2079 28.208 33.1149C28.2887 33.0219 28.3504 32.914 28.3894 32.7972C28.4284 32.6804 28.4441 32.557 28.4354 32.4342C28.4268 32.3114 28.3941 32.1914 28.3391 32.0812C28.2841 31.971 28.2079 31.8728 28.1149 31.792C28.022 31.7113 27.914 31.6496 27.7972 31.6106C27.6804 31.5715 27.5571 31.5559 27.4342 31.5645C27.3114 31.5732 27.1914 31.6059 27.0813 31.6609L20.9375 34.7328V28.4015C24.3289 28.1607 27.5033 26.6446 29.8223 24.1583C32.1414 21.6721 33.433 18.3999 33.4375 15V8.74998C33.4375 8.50134 33.3387 8.26288 33.1629 8.08706C32.9871 7.91125 32.7486 7.81248 32.5 7.81248ZM20 4.82498C21.0094 5.42498 23.6047 7.16873 25.2078 9.97185C22.8543 11.4988 21.0342 13.7202 20 16.3281C18.9658 13.7202 17.1457 11.4988 14.7922 9.97185C16.3953 7.16091 18.9906 5.42341 20 4.82498ZM8.4375 15V9.72498C11.3308 9.96433 14.0287 11.2818 15.9966 13.4163C17.9644 15.5509 19.0587 18.3468 19.0625 21.25V26.525C16.169 26.286 13.4709 24.9686 11.503 22.834C9.53509 20.6994 8.44097 17.9033 8.4375 15ZM31.5625 15C31.559 17.9033 30.4649 20.6994 28.497 22.834C26.5291 24.9686 23.831 26.286 20.9375 26.525V21.25C20.9413 18.3468 22.0356 15.5509 24.0034 13.4163C25.9713 11.2818 28.6692 9.96433 31.5625 9.72498V15Z" fill="#E5641E" stroke="#E5641E" stroke-width="1.5"/>
</svg>
