<svg width="40" height="40" viewBox="0 0 40 40" fill="none" xmlns="http://www.w3.org/2000/svg">
<path d="M20.5766 34.9367C18.8433 34.73 17.1222 34.2778 15.4133 33.58C13.7044 32.8811 12.156 31.8633 10.7683 30.5267C9.37938 29.1889 8.22605 27.4933 7.30827 25.44C6.39049 23.3867 5.85605 20.9111 5.70494 18.0133L5.6416 16.6667L6.92327 16.7317C8.08327 16.795 9.46105 17.0878 11.0566 17.61C12.6533 18.13 14.0083 18.7939 15.1216 19.6017C15.2627 17.5128 15.7794 15.3128 16.6716 13.0017C17.5638 10.6905 18.6733 8.72832 19.9999 7.11499C21.3266 8.72832 22.436 10.7011 23.3283 13.0333C24.2205 15.3655 24.7372 17.5767 24.8783 19.6667C25.9272 18.9222 27.2283 18.2633 28.7816 17.69C30.3349 17.1167 31.7455 16.7967 33.0133 16.73L34.3583 16.6667L34.2949 18.0767C34.2094 20.3767 33.8516 22.4411 33.2216 24.27C32.5916 26.0989 31.6999 27.7033 30.5466 29.0833C29.3933 30.4633 27.9894 31.6355 26.3349 32.6C24.6805 33.5644 22.761 34.3433 20.5766 34.9367ZM20.5566 33.25C20.251 28.6389 18.8833 25.1528 16.4533 22.7917C14.0233 20.4305 11.0022 18.9722 7.38993 18.4167C7.69549 23.1667 9.10549 26.7083 11.6199 29.0417C14.1344 31.375 17.1133 32.7778 20.5566 33.25ZM19.9999 24.8467C20.3744 24.15 20.8549 23.4217 21.4416 22.6617C22.0272 21.9017 22.6299 21.2644 23.2499 20.75C23.2377 19.0389 22.9466 17.2528 22.3766 15.3917C21.8066 13.5305 21.0144 11.7483 19.9999 10.045C18.9855 11.7483 18.1933 13.5305 17.6233 15.3917C17.0533 17.2528 16.7622 19.0389 16.7499 20.75C17.3699 21.2655 17.9694 21.9028 18.5483 22.6617C19.1272 23.4217 19.611 24.1494 19.9999 24.845M22.2249 32.6933C23.5294 32.2522 24.7799 31.6694 25.9766 30.945C27.1744 30.2217 28.2466 29.295 29.1933 28.165C30.141 27.0361 30.9183 25.6733 31.5249 24.0767C32.1305 22.4811 32.4916 20.5944 32.6083 18.4167C29.9116 18.8055 27.5133 19.7539 25.4133 21.2617C23.3133 22.7694 21.7994 24.6183 20.8716 26.8083C21.2049 27.6972 21.4788 28.5944 21.6933 29.5C21.9077 30.4055 22.0849 31.47 22.2249 32.6933Z" fill="#E5641E"/>
<path d="M19.9999 24.8467C20.3744 24.15 20.8549 23.4217 21.4416 22.6617C22.0272 21.9017 22.6299 21.2644 23.2499 20.75C23.2377 19.0389 22.9466 17.2528 22.3766 15.3917C21.8066 13.5305 21.0144 11.7483 19.9999 10.045C18.9855 11.7483 18.1933 13.5305 17.6233 15.3917C17.0533 17.2528 16.7622 19.0389 16.7499 20.75C17.3699 21.2655 17.9694 21.9028 18.5483 22.6617C19.1272 23.4217 19.611 24.1494 19.9999 24.845M20.5766 34.9367C18.8433 34.73 17.1222 34.2778 15.4133 33.58C13.7044 32.8811 12.156 31.8633 10.7683 30.5267C9.37938 29.1889 8.22605 27.4933 7.30827 25.44C6.39049 23.3867 5.85605 20.9111 5.70494 18.0133L5.6416 16.6667L6.92327 16.7317C8.08327 16.795 9.46105 17.0878 11.0566 17.61C12.6533 18.13 14.0083 18.7939 15.1216 19.6017C15.2627 17.5128 15.7794 15.3128 16.6716 13.0017C17.5638 10.6905 18.6733 8.72832 19.9999 7.11499C21.3266 8.72832 22.436 10.7011 23.3283 13.0333C24.2205 15.3655 24.7372 17.5767 24.8783 19.6667C25.9272 18.9222 27.2283 18.2633 28.7816 17.69C30.3349 17.1167 31.7455 16.7967 33.0133 16.73L34.3583 16.6667L34.2949 18.0767C34.2094 20.3767 33.8516 22.4411 33.2216 24.27C32.5916 26.0989 31.6999 27.7033 30.5466 29.0833C29.3933 30.4633 27.9894 31.6355 26.3349 32.6C24.6805 33.5644 22.761 34.3433 20.5766 34.9367ZM20.5566 33.25C20.251 28.6389 18.8833 25.1528 16.4533 22.7917C14.0233 20.4305 11.0022 18.9722 7.38993 18.4167C7.69549 23.1667 9.10549 26.7083 11.6199 29.0417C14.1344 31.375 17.1133 32.7778 20.5566 33.25ZM22.2249 32.6933C23.5294 32.2522 24.7799 31.6694 25.9766 30.945C27.1744 30.2217 28.2466 29.295 29.1933 28.165C30.141 27.0361 30.9183 25.6733 31.5249 24.0767C32.1305 22.4811 32.4916 20.5944 32.6083 18.4167C29.9116 18.8055 27.5133 19.7539 25.4133 21.2617C23.3133 22.7694 21.7994 24.6183 20.8716 26.8083C21.2049 27.6972 21.4788 28.5944 21.6933 29.5C21.9077 30.4055 22.0849 31.47 22.2249 32.6933Z" stroke="#E5641E" stroke-width="1.5"/>
</svg>
