<svg width="40" height="40" viewBox="0 0 40 40" fill="none" xmlns="http://www.w3.org/2000/svg">
<path fill-rule="evenodd" clip-rule="evenodd" d="M19.9999 3.33331C21.0333 3.36165 22.1133 4.23831 22.8216 4.91165C23.8131 5.84112 24.5072 7.04329 24.8166 8.36665C25.972 7.64932 27.314 7.29033 28.6733 7.33498C29.6499 7.35998 31.0333 7.50498 31.7833 8.21498C32.4933 8.96498 32.6366 10.3483 32.6616 11.325C32.7067 12.6841 32.3483 14.0261 31.6316 15.1816C33.1766 15.5383 34.3149 16.365 35.0866 17.1783C35.7599 17.8866 36.6366 18.9666 36.6649 20C36.6366 21.0333 35.7599 22.1133 35.0866 22.8216C34.1573 23.8137 32.9551 24.5085 31.6316 24.8183C32.348 25.9741 32.7069 27.3159 32.6633 28.675C32.6383 29.6516 32.4933 31.035 31.7833 31.785C31.0333 32.495 29.6499 32.6383 28.6733 32.6633C27.3142 32.7085 25.9722 32.3501 24.8166 31.6333C24.5068 32.9569 23.812 34.1591 22.8199 35.0883C22.1116 35.7616 21.0299 36.6383 19.9983 36.6666C18.9649 36.6383 17.8849 35.7616 17.1766 35.0883C16.1857 34.1586 15.4921 32.9565 15.1833 31.6333C14.0278 32.3506 12.6858 32.7096 11.3266 32.665C10.3499 32.64 8.96659 32.495 8.21659 31.785C7.50659 31.035 7.36325 29.6516 7.33825 28.675C7.2931 27.3159 7.65151 25.9739 8.36825 24.8183C7.0447 24.5085 5.8425 23.8137 4.91325 22.8216C4.23825 22.1133 3.36159 21.0333 3.33325 20C3.36159 18.9666 4.23825 17.8866 4.91159 17.1783C5.84105 16.1868 7.04323 15.4927 8.36659 15.1833C7.64926 14.0279 7.29027 12.6859 7.33492 11.3266C7.35992 10.35 7.50492 8.96665 8.21492 8.21665C8.96492 7.50665 10.3483 7.36165 11.3249 7.33831C12.684 7.29316 14.026 7.65157 15.1816 8.36831C15.5383 6.82331 16.3649 5.68498 17.1783 4.91331C17.8883 4.23998 18.9666 3.36165 19.9999 3.33331ZM20.8333 26.6166C20.2866 26.6833 19.7133 26.6833 19.1666 26.6166C18.7033 27.6833 18.3333 28.7616 18.3333 30.0016C18.3333 31.6716 19.2983 32.6133 19.9999 33.1016C20.7016 32.6133 21.6666 31.6716 21.6666 30.0016C21.6666 28.7616 21.2966 27.6833 20.8333 26.6166ZM14.7333 24.09C13.6516 24.5166 12.6266 25.0183 11.7499 25.895C10.5699 27.075 10.5849 28.4233 10.7383 29.2633C11.5783 29.415 12.9266 29.4316 14.1066 28.2516C14.9833 27.375 15.4849 26.35 15.9116 25.2683C15.4711 24.9264 15.0752 24.5305 14.7333 24.09ZM25.2666 24.09C24.9246 24.5305 24.5288 24.9264 24.0883 25.2683C24.5149 26.35 25.0166 27.375 25.8933 28.2516C27.0733 29.4316 28.4216 29.415 29.2616 29.2633C29.4133 28.4233 29.4299 27.075 28.2499 25.895C27.3733 25.0183 26.3483 24.5166 25.2666 24.09ZM19.9999 16.6666C19.1159 16.6666 18.268 17.0178 17.6429 17.643C17.0178 18.2681 16.6666 19.1159 16.6666 20C16.6666 20.884 17.0178 21.7319 17.6429 22.357C18.268 22.9821 19.1159 23.3333 19.9999 23.3333C20.884 23.3333 21.7318 22.9821 22.3569 22.357C22.9821 21.7319 23.3333 20.884 23.3333 20C23.3333 19.1159 22.9821 18.2681 22.3569 17.643C21.7318 17.0178 20.884 16.6666 19.9999 16.6666ZM9.99992 18.3333C8.32992 18.3333 7.38825 19.2983 6.89992 20C7.38825 20.7016 8.32992 21.6666 9.99992 21.6666C11.2399 21.6666 12.3183 21.2966 13.3849 20.8333C13.3152 20.2799 13.3152 19.72 13.3849 19.1666C12.3183 18.7033 11.2399 18.3333 9.99992 18.3333ZM29.9999 18.3333C28.7599 18.3333 27.6816 18.7033 26.6149 19.1666C26.6816 19.7133 26.6816 20.2866 26.6149 20.8333C27.6816 21.2966 28.7599 21.6666 29.9999 21.6666C31.6699 21.6666 32.6116 20.7016 33.0999 20C32.6116 19.2983 31.6699 18.3333 29.9999 18.3333ZM14.1066 11.75C12.9266 10.57 11.5783 10.585 10.7383 10.7383C10.5849 11.5783 10.5699 12.9266 11.7499 14.1066C12.6266 14.9833 13.6516 15.485 14.7333 15.9116C15.0752 15.4711 15.4711 15.0753 15.9116 14.7333C15.4849 13.6516 14.9833 12.6266 14.1066 11.75ZM29.2616 10.7383C28.4216 10.585 27.0733 10.57 25.8933 11.75C25.0166 12.6266 24.5149 13.6516 24.0883 14.7333C24.5305 15.0778 24.9233 15.4705 25.2666 15.9116C26.3483 15.485 27.3733 14.9833 28.2499 14.1066C29.4299 12.9266 29.4133 11.5783 29.2616 10.7383ZM19.9999 6.89998C19.2983 7.38665 18.3333 8.32831 18.3333 9.99831C18.3333 11.2383 18.7033 12.3166 19.1666 13.3833C19.7133 13.3166 20.2866 13.3166 20.8333 13.3833C21.2966 12.3166 21.6666 11.2383 21.6666 9.99831C21.6666 8.32831 20.7016 7.38831 19.9999 6.89998Z" fill="#E5641E"/>
</svg>
