<svg xmlns="http://www.w3.org/2000/svg" xml:space="preserve" id="posture-corrector" x="0" y="0" style="enable-background:new 0 0 100 100" version="1.1" viewBox="0 0 100 100">
  <path d="M81.96,52.95C82.56,50.28,83,47.94,83,46c0-0.55-0.45-1-1-1s-1,0.45-1,1c0,2.25-0.7,5.29-1.51,8.82
	c-0.69,2.98-1.47,6.36-2.03,10.09c-0.18,1.21-0.3,2.45-0.39,3.72c-16.81-6.02-18.1-25.58-14.85-36.79
	c1.69-5.83,5.95-11.13,11.73-14.64c0.05,0.02,0.11,0.05,0.16,0.07c1.19,0.55,2.35,1.09,3.46,1.63c4.55,2.18,9.56,4.89,11.51,9.49
	C89.24,28.77,89.61,29,90,29c0.13,0,0.26-0.03,0.39-0.08c0.51-0.22,0.75-0.8,0.53-1.31c-2.22-5.24-7.61-8.17-12.49-10.51
	c-1.12-0.54-2.29-1.08-3.48-1.64c-0.07-0.03-0.14-0.06-0.2-0.1c-0.19-0.23-0.46-0.35-0.75-0.35c-3.61-1.69-7.59-3.58-11.49-5.88
	c-0.43-0.25-0.97-0.15-1.28,0.23C58.06,13.26,54.6,15,50.01,15c-4.7-0.04-8.05-1.72-11.23-5.63c-0.31-0.38-0.85-0.48-1.28-0.23
	c-3.9,2.3-7.88,4.19-11.49,5.88c-0.29,0-0.56,0.12-0.75,0.35c-0.07,0.03-0.14,0.06-0.2,0.1c-1.2,0.56-2.36,1.1-3.48,1.64
	c-4.88,2.34-10.27,5.27-12.49,10.51c-0.21,0.51,0.02,1.1,0.53,1.31c0.5,0.21,1.09-0.02,1.31-0.53c1.95-4.6,6.96-7.31,11.51-9.49
	c1.11-0.53,2.27-1.07,3.46-1.63c0.05-0.02,0.11-0.05,0.16-0.07c5.78,3.51,10.04,8.82,11.73,14.64c3.25,11.2,1.96,30.76-14.85,36.79
	c-0.09-1.27-0.21-2.51-0.39-3.72c-0.56-3.73-1.34-7.11-2.03-10.09C19.7,51.3,19,48.25,19,46c0-0.55-0.45-1-1-1s-1,0.45-1,1
	c0,1.94,0.44,4.28,1.04,6.95c-1.96,7.11-6.09,12.73-8.84,16.46c-0.33,0.44-0.23,1.07,0.21,1.4C9.58,70.94,9.79,71,10,71
	c0.31,0,0.61-0.14,0.81-0.41c2.41-3.27,5.85-7.97,8.09-13.88c0.59,2.58,1.21,5.42,1.67,8.5c0.23,1.51,0.37,3.07,0.44,4.69
	c0,0.02,0,0.04,0,0.06c0.27,5.71-0.37,12.13-1.99,19.84c-0.06,0.29,0.01,0.6,0.2,0.84S19.7,91,20,91h60c0.3,0,0.59-0.14,0.78-0.37
	s0.26-0.54,0.2-0.84c-1.62-7.71-2.26-14.13-1.99-19.84c0-0.02,0.01-0.04,0-0.06c0.08-1.61,0.22-3.18,0.44-4.69
	c0.46-3.08,1.08-5.91,1.67-8.5c2.24,5.92,5.68,10.61,8.09,13.88C89.39,70.86,89.69,71,90,71c0.21,0,0.41-0.06,0.59-0.2
	c0.44-0.33,0.54-0.95,0.21-1.4C88.06,65.68,83.92,60.06,81.96,52.95z M76.96,70.7c-0.1,3.19,0.08,6.6,0.53,10.3h-9.31
	c-5.84-1.97-11.31-4.71-16.48-8.25c4.39-3.25,8.56-7.08,12.49-11.45C67.02,65.39,71.17,68.76,76.96,70.7z M62.6,81H37.4
	c4.36-1.87,8.57-4.22,12.6-7.04C54.03,76.78,58.23,79.13,62.6,81z M39.7,31.28c-1.72-5.92-5.87-11.33-11.51-15.09
	c3.05-1.44,6.32-3.03,9.58-4.91c3.4,3.9,7.2,5.67,12.22,5.71c4.99,0,8.79-1.77,12.22-5.71c3.26,1.87,6.53,3.47,9.58,4.91
	c-5.64,3.76-9.79,9.17-11.51,15.09c-2.26,7.78-2.42,19.35,2.77,28.26c-4.16,4.68-8.5,8.67-13.07,12.01
	c-4.57-3.34-8.91-7.32-13.07-12.01C42.12,50.63,41.96,39.06,39.7,31.28z M35.82,61.29c3.93,4.37,8.1,8.2,12.49,11.45
	c-5.17,3.55-10.64,6.28-16.48,8.25h-9.31c0.45-3.7,0.63-7.11,0.53-10.3C28.83,68.76,32.98,65.39,35.82,61.29z M21.23,89
	c0.42-2.09,0.75-4.08,1.03-6H32c0,0,0,0,0,0c0,0,0,0,0,0H68c0,0,0,0,0,0c0,0,0,0,0,0h9.74c0.28,1.92,0.61,3.91,1.03,6H21.23z M47,30
	c0-0.55,0.45-1,1-1h4c0.55,0,1,0.45,1,1s-0.45,1-1,1h-4C47.45,31,47,30.55,47,30z M47,42c0-0.55,0.45-1,1-1h4c0.55,0,1,0.45,1,1
	s-0.45,1-1,1h-4C47.45,43,47,42.55,47,42z M47,54c0-0.55,0.45-1,1-1h4c0.55,0,1,0.45,1,1s-0.45,1-1,1h-4C47.45,55,47,54.55,47,54z"></path>
</svg>
