<svg width="48" height="42" viewBox="0 0 48 42" fill="none" xmlns="http://www.w3.org/2000/svg">
<path d="M42.3619 30.0114C42.5752 29.8571 42.7828 29.6971 42.9714 29.5124C44.0781 28.421 44.6152 26.8819 44.6152 24.8076C44.6152 21.4667 42.8724 19.8019 40.2095 18.9695C40.7733 18.7105 41.2724 18.4038 41.6647 18.0057C42.3733 17.2838 42.7238 16.3638 42.7067 15.2705C42.6819 13.7029 41.0952 12.5124 38.7486 11.7162C39.1886 11.5219 39.5752 11.2781 39.8914 10.9638C40.4971 10.3638 40.8038 9.57143 40.8038 8.61905C40.8038 5.02286 36.3238 1 30.3276 1C24.3314 1 19.8514 5.02286 19.8514 8.61905C19.8514 9.57143 20.1581 10.36 20.7619 10.9619C21.0781 11.2762 21.4724 11.5105 21.9124 11.7048C20.1333 12.3048 18.7924 13.1295 18.2324 14.1714C17.1943 13.101 15.7447 12.4286 14.1371 12.4286C11.3733 12.4286 9.06284 14.4019 8.53713 17.0133C6.01332 16.1638 3.15046 17.179 1.76761 19.5714C0.386653 21.9638 0.939034 24.9524 2.93713 26.7124C0.937129 28.4724 0.380939 31.461 1.7638 33.8571C2.82284 35.6895 4.74665 36.7143 6.7238 36.7143C7.33332 36.7143 7.93903 36.579 8.53332 36.3771C9.0457 39.0057 11.36 41 14.1371 41C16.0305 41 17.7009 40.0629 18.7409 38.6381C21.4914 40.1048 26.1428 41 31.28 41C37.8324 41 43.4362 39.6038 45.5543 37.4438C46.2095 36.7752 46.5333 36.0419 46.5181 35.2686C46.4533 32.101 44.8324 30.659 42.3619 30.0114ZM42.7086 24.8095C42.7086 26.3486 42.3562 27.4438 41.6324 28.1581C40.7676 29.0114 39.3105 29.3676 37.52 29.5143C36.5047 29.5029 35.4457 29.52 34.3562 29.5371C33.4552 29.5524 32.5124 29.5638 31.56 29.579C30.0609 29.5676 28.5162 29.5543 27.0247 29.3867C26.8876 28.9181 26.6781 28.4762 26.4247 28.0552C26.3809 27.981 26.3371 27.9067 26.2895 27.8343C26.0209 27.4305 25.7162 27.0476 25.3409 26.7162L25.339 26.7143C25.3428 26.7105 25.3467 26.7067 25.3505 26.7029C25.3581 26.6952 25.3638 26.6876 25.3733 26.68C25.6228 26.4571 25.8457 26.2076 26.0514 25.9448C26.099 25.8838 26.1428 25.819 26.1886 25.7562C26.3505 25.5295 26.4971 25.2933 26.6247 25.0438C26.6552 24.9848 26.6895 24.9276 26.7181 24.8667C26.8628 24.5581 26.9905 24.24 27.08 23.9048C27.1714 23.5619 27.2228 23.2152 27.2495 22.8705C27.2552 22.8 27.2495 22.7295 27.2533 22.661C27.2647 22.3848 27.2609 22.1105 27.2324 21.8381C27.2228 21.7371 27.2038 21.6362 27.1886 21.5352C27.1505 21.2895 27.0952 21.0495 27.0247 20.8095C26.9924 20.701 26.96 20.5943 26.9219 20.4876C26.8933 20.4095 26.8781 20.3276 26.8457 20.2514C27.979 20.1143 29.1447 20.0457 30.3276 20.0457C38.2343 20.0476 42.7086 20.2667 42.7086 24.8095ZM21.7562 8.61905C21.7562 6.03048 25.579 2.90476 30.3276 2.90476C35.0762 2.90476 38.899 6.03048 38.899 8.61905C38.899 9.19619 38.699 9.46095 38.5486 9.61143C37.6 10.5543 34.68 10.5371 31.5905 10.5257L30.3276 10.5238L29.0647 10.5276C25.9771 10.5467 23.0552 10.5581 22.1067 9.61333C21.9562 9.46286 21.7562 9.2 21.7562 8.61905ZM30.3276 12.4286C37.0762 12.4286 40.7886 14.3257 40.8038 15.301C40.8133 15.88 40.6552 16.3162 40.3086 16.6686C38.9314 18.0705 34.7695 18.139 30.9276 18.141C30.7276 18.141 30.5295 18.141 30.3295 18.141C30.3219 18.141 30.3143 18.141 30.3067 18.141C28.2876 18.139 26.32 17.9562 24.5962 17.6057C24.5714 17.5905 24.5428 17.5848 24.5181 17.5714C23.6495 17.0457 22.6667 16.7543 21.6552 16.7352C20.4114 16.1962 19.8514 15.6267 19.8514 15.2857C19.8514 14.3143 23.5486 12.4286 30.3276 12.4286ZM18.219 22.4762C18.32 22.301 18.419 22.1276 18.5162 21.9524C18.5809 21.8343 18.6438 21.7181 18.7047 21.6019C18.8 21.421 18.8876 21.2419 18.9752 21.0629C19.0228 20.9638 19.0743 20.8648 19.1181 20.7657C19.2419 20.4952 19.3543 20.2286 19.4514 19.9676C19.4686 19.9219 19.48 19.88 19.4952 19.8343C19.5771 19.6038 19.6457 19.381 19.7009 19.1638C19.7067 19.141 19.7162 19.1162 19.7219 19.0933C20.2781 18.7886 20.8762 18.6533 21.4724 18.64C21.4762 18.64 21.48 18.6419 21.4838 18.6419C22.2819 18.6152 23.0457 18.8514 23.6952 19.2914H23.6971C24.1581 19.6038 24.5657 20.0095 24.8609 20.5238C25.779 22.1143 25.4152 24.099 24.0952 25.2743C23.9067 25.4419 23.699 25.5924 23.4705 25.7238C23.4514 25.7352 23.4267 25.741 23.4076 25.7524C23.339 25.7886 23.2476 25.8171 23.1657 25.8495C22.9371 25.9352 22.6743 26.0076 22.3714 26.061C22.3676 26.061 22.3638 26.0629 22.36 26.0629C21.7028 26.179 20.8971 26.2248 20.0438 26.2267C20.0247 26.2267 20.0038 26.2267 19.9828 26.2267C19.5733 26.2267 19.1524 26.2171 18.7333 26.1981C18.7181 26.1981 18.7047 26.1962 18.6895 26.1962C17.7009 26.1524 16.7352 26.0686 15.9009 25.9771C15.9276 25.941 15.9581 25.899 15.9847 25.861C16.099 25.7067 16.2152 25.5448 16.3371 25.3733C16.3905 25.2971 16.4457 25.221 16.5009 25.141C16.6133 24.981 16.7257 24.819 16.8419 24.6495C16.9028 24.56 16.9638 24.4724 17.0247 24.381C17.1619 24.1771 17.299 23.9695 17.4362 23.7562C17.4743 23.6971 17.5105 23.6419 17.5486 23.5829C17.7143 23.3238 17.8762 23.059 18.0362 22.7924C18.099 22.6857 18.1581 22.581 18.219 22.4762ZM14.1352 14.3314C16.2362 14.3314 17.9447 16.04 17.9447 18.141C17.9447 18.2362 17.9143 18.3562 17.8971 18.4648C17.8571 18.7029 17.7905 18.96 17.6876 19.2438C17.6838 19.2552 17.68 19.2648 17.6762 19.2762C17.4514 19.8933 17.0952 20.6019 16.6781 21.3295C16.6495 21.379 16.6171 21.4305 16.5886 21.4819C16.4057 21.7943 16.2152 22.1105 16.0171 22.4229C15.9847 22.4743 15.9505 22.5276 15.9181 22.579C15.7028 22.9162 15.4819 23.2495 15.2628 23.5695C15.2571 23.5771 15.2514 23.5848 15.2476 23.5924C14.9467 24.0343 14.6571 24.4362 14.3809 24.8133C13.9505 23.8305 13.3409 22.5314 12.6381 21.28C12.6324 21.2686 12.6247 21.2571 12.6171 21.2457C12.4628 20.9733 12.3047 20.7048 12.1428 20.4419C12.1067 20.3848 12.0724 20.3276 12.0362 20.2705C11.8876 20.0324 11.7352 19.8038 11.5809 19.581C11.5505 19.5371 11.5219 19.4933 11.4914 19.4514C11.3086 19.1924 11.1219 18.9486 10.9352 18.7219C10.9181 18.701 10.9009 18.6838 10.8838 18.6648C10.7124 18.4629 10.5409 18.2781 10.3676 18.1105C10.3524 18.0952 10.339 18.0762 10.3238 18.0629C10.3676 16 12.0609 14.3333 14.1352 14.3314ZM3.41522 20.5238C4.11999 19.301 5.40189 18.619 6.71999 18.619C7.3657 18.619 8.02094 18.7829 8.61903 19.1295C8.69903 19.1752 8.78475 19.259 8.86856 19.3257C10.1467 20.3733 11.6819 23.44 12.6171 25.5562C12.5771 25.5524 12.5276 25.5467 12.4857 25.5429C12.2876 25.5219 12.08 25.499 11.8609 25.4781C11.7828 25.4705 11.7067 25.4648 11.6267 25.4571C11.3981 25.4362 11.1619 25.4171 10.9162 25.3981C10.8514 25.3924 10.7886 25.3886 10.7219 25.3829C10.0819 25.3371 9.4076 25.3048 8.7276 25.2971C8.67046 25.2971 8.61522 25.2971 8.55999 25.2971C8.28761 25.2952 8.01713 25.2971 7.74856 25.3048C7.66094 25.3067 7.57332 25.3105 7.4857 25.3124C7.22475 25.3219 6.96951 25.3371 6.71999 25.3581C6.65522 25.3638 6.58856 25.3676 6.5238 25.3733C6.21332 25.4019 5.91237 25.44 5.62665 25.4876C5.59427 25.4933 5.5638 25.501 5.53141 25.5067C5.27808 25.5524 5.04189 25.6076 4.81713 25.6705C4.79618 25.6762 4.76951 25.68 4.74665 25.6857C2.97522 24.621 2.37713 22.32 3.41522 20.5238ZM10.0838 30.9067C9.9676 31.1048 9.85522 31.3048 9.74665 31.5048C9.69141 31.6038 9.63999 31.7029 9.58665 31.8019C9.47808 32.0076 9.37713 32.2095 9.27999 32.4133C9.24189 32.4933 9.20189 32.5714 9.1657 32.6495C9.03808 32.9276 8.9238 33.2019 8.82284 33.4686C8.80951 33.5048 8.79999 33.539 8.78665 33.5752C8.70094 33.8133 8.63046 34.0419 8.57522 34.2667C8.57141 34.2876 8.55999 34.3124 8.55427 34.3333C6.74094 35.3333 4.45332 34.699 3.41522 32.9029C2.3657 31.0838 2.99046 28.7486 4.80951 27.699C4.89522 27.6495 5.02094 27.6152 5.12951 27.5733C5.34665 27.4933 5.59237 27.4267 5.87237 27.3752C5.89903 27.3695 5.9238 27.3638 5.95046 27.36C6.71618 27.2286 7.67999 27.1943 8.6838 27.2095C9.09713 27.2152 9.51808 27.2305 9.94475 27.2514C10.2114 27.2667 10.4781 27.28 10.739 27.299C11.1467 27.3295 11.5447 27.3638 11.9352 27.4019C12.0895 27.4171 12.2286 27.4324 12.3733 27.4476C12.2952 27.5543 12.2076 27.6781 12.1238 27.7924C12.0762 27.859 12.0305 27.9219 11.9809 27.9905C11.899 28.1048 11.8171 28.221 11.7333 28.3429C11.6419 28.4743 11.5486 28.6076 11.4552 28.7448C11.3847 28.8476 11.3181 28.9467 11.2476 29.0514C11.1086 29.259 10.9695 29.4705 10.8286 29.6876C10.7962 29.739 10.7638 29.7867 10.7314 29.8381C10.5619 30.1048 10.3943 30.3771 10.2305 30.6533C10.179 30.739 10.1314 30.821 10.0838 30.9067ZM17.5543 36.9276C17.5486 36.9371 17.5505 36.9486 17.5467 36.9581C16.9238 38.219 15.6362 39.0952 14.1371 39.0952C12.0362 39.0952 10.3276 37.3867 10.3276 35.2857C10.3276 35.1924 10.3562 35.0724 10.3733 34.9638C10.4133 34.7238 10.4819 34.4629 10.5847 34.1752C10.5867 34.1676 10.5886 34.1619 10.5905 34.1543C10.8171 33.5295 11.179 32.8133 11.6019 32.0762C11.6171 32.0514 11.6324 32.0248 11.6476 31.9981C11.8457 31.6552 12.0571 31.3086 12.2743 30.9657C12.2914 30.941 12.3067 30.9143 12.3238 30.8895C12.8514 30.0629 13.4019 29.2762 13.8933 28.6057C14.1086 29.0952 14.3695 29.6667 14.6609 30.2705L14.6647 30.2781C14.9543 30.8743 15.2762 31.499 15.6209 32.1162C15.6419 32.1543 15.6628 32.1905 15.6857 32.2267C15.8247 32.4724 15.9676 32.7124 16.1124 32.9505C16.1581 33.0248 16.2038 33.099 16.2495 33.1714C16.3886 33.3905 16.5276 33.6038 16.6705 33.8095C16.7086 33.8648 16.7467 33.9219 16.7847 33.9771C16.9657 34.2324 17.1486 34.4743 17.3333 34.6971C17.3524 34.72 17.3714 34.739 17.3905 34.7619C17.56 34.9619 17.7295 35.1448 17.9009 35.3105C17.9124 35.3219 17.9238 35.3371 17.9352 35.3467C17.9276 35.8838 17.8038 36.4152 17.5543 36.9276ZM15.659 27.8705C15.6857 27.8743 15.72 27.8762 15.7467 27.88C15.9581 27.9029 16.179 27.9257 16.4152 27.9486C16.4819 27.9543 16.5486 27.9619 16.6152 27.9676C16.8514 27.9886 17.0952 28.0095 17.3486 28.0286C17.4305 28.0343 17.5086 28.04 17.5905 28.0457C17.8286 28.0629 18.0724 28.0762 18.32 28.0876C18.4286 28.0933 18.5371 28.099 18.6457 28.1029C18.8724 28.1124 19.099 28.1181 19.3276 28.1219C19.4571 28.1238 19.5828 28.1276 19.7124 28.1295C19.7733 28.1295 19.8362 28.1333 19.8971 28.1333C19.9867 28.1333 20.0705 28.1276 20.16 28.1257C20.4381 28.1238 20.7105 28.1162 20.9809 28.1029C21.1181 28.0971 21.2514 28.0876 21.3867 28.0781C21.6647 28.059 21.9295 28.0305 22.1905 27.9962C22.3047 27.981 22.4228 27.9695 22.5333 27.9524C22.8419 27.9029 23.1314 27.8419 23.4 27.7676C23.4381 27.7581 23.4857 27.7524 23.5219 27.741C23.9828 28.019 24.3771 28.3867 24.6762 28.8248C24.6819 28.8324 24.6857 28.8419 24.6914 28.8495C24.9981 29.3048 25.2076 29.8305 25.299 30.3981L25.3009 30.4038C25.3238 30.5486 25.3486 30.6914 25.3562 30.84C25.3562 30.8495 25.3505 30.859 25.3524 30.8705C25.3638 31.2076 25.3238 31.5371 25.2533 31.8552C25.2419 31.901 25.2343 31.9486 25.2209 31.9943C25.1371 32.3143 25.0209 32.6229 24.8552 32.9086C24.8343 32.9448 24.8038 32.9752 24.7809 33.0114C24.6667 33.1943 24.5467 33.3733 24.4076 33.5295C24.3924 33.5467 24.3714 33.56 24.3562 33.5771C23.5371 34.4667 22.3467 34.9029 21.1695 34.7829C21.1409 34.779 21.1124 34.7829 21.0838 34.781C20.8838 34.7562 20.6857 34.7048 20.4876 34.6457C20.4438 34.6324 20.3962 34.6286 20.3524 34.6133C20.1143 34.5333 19.88 34.4286 19.6552 34.299C19.5752 34.2533 19.4895 34.1695 19.4057 34.1029C18.1295 33.0552 16.5924 29.9886 15.659 27.8705ZM44.1924 36.1086C42.7847 37.5467 38.1428 39.0952 31.28 39.0952C26.4724 39.0952 22.0209 38.2667 19.5924 36.9505C19.6324 36.8267 19.6609 36.701 19.6914 36.5771C19.7047 36.5238 19.7257 36.4743 19.7371 36.419C19.8247 36.4495 19.9143 36.4629 20.0038 36.4876C20.0743 36.5067 20.1428 36.5257 20.2152 36.5429C20.64 36.6457 21.0705 36.7067 21.5067 36.7105C21.5219 36.7105 21.5352 36.7162 21.5505 36.7162C21.579 36.7162 21.6076 36.7048 21.6362 36.7048C22.1047 36.6971 22.5733 36.6457 23.0381 36.5219C23.4743 36.4038 23.88 36.2267 24.2667 36.0171C24.3638 35.9638 24.4533 35.901 24.5486 35.8419C24.8495 35.6571 25.1276 35.4476 25.3886 35.2095C25.48 35.1276 25.5695 35.0495 25.6552 34.96C25.9752 34.6286 26.2705 34.2686 26.5086 33.859C26.6057 33.6895 26.6686 33.5029 26.7486 33.3238C26.9867 32.7924 27.1638 32.2457 27.2305 31.6876C28.5562 31.5524 29.9028 31.5048 31.2247 31.4819C31.7162 31.4876 32.2019 31.4914 32.6781 31.499C33.3943 31.5086 34.0933 31.5181 34.7714 31.5181C35.7447 31.5181 36.6705 31.4933 37.5447 31.4267C42.2343 31.4762 44.5486 32.0914 44.6152 35.3067C44.619 35.5486 44.4762 35.819 44.1924 36.1086ZM25.3257 8.56C25.56 8.56 25.7924 8.47429 25.9771 8.30476C26.3752 7.93333 27.8667 6.71429 30.3276 6.71429C30.8533 6.71429 31.28 6.28762 31.28 5.7619C31.28 5.23619 30.8533 4.80952 30.3276 4.80952C27.1676 4.80952 25.2019 6.41905 24.6743 6.91238C24.2914 7.27238 24.2724 7.87429 24.6305 8.25905C24.8171 8.46095 25.0724 8.56 25.3257 8.56Z" fill="#E5641E" stroke="#E5641E" stroke-width="1.5"/>
</svg>
