<svg xmlns="http://www.w3.org/2000/svg" viewBox="0 0 104 104" id="spine">
  <path d="M40.556,14.376c-.55,.053-.952,.542-.899,1.091,.332,3.461-1.98,8.126-3,9.27-1.996,2.241-4.259,2.933-6.88,3.735-.704,.215-1.427,.437-2.168,.693-13.715,4.752-12.336,17.722-11.119,29.164,.623,5.867,1.213,11.408,.054,15.898-.138,.535,.185,1.081,.719,1.218,.084,.021,.168,.032,.251,.032,.445,0,.851-.299,.968-.75,1.248-4.842,.612-10.824-.003-16.61-1.248-11.741-2.427-22.831,9.785-27.063,.718-.249,1.417-.462,2.099-.671,2.787-.853,5.42-1.658,7.789-4.317,1.389-1.559,3.882-6.781,3.496-10.792-.053-.55-.551-.95-1.091-.9Z"></path>
  <path d="M31.684 46.526c.105-.542-.249-1.067-.791-1.172-.54-.11-1.067.248-1.172.791-.106.544-2.548 13.425 1.568 22.203.885 1.887 1.286 3.775 1.193 5.6l-.902 14.619c-.034.551.385 1.025.937 1.06.021.001.042.002.062.002.524 0 .965-.408.997-.938l.903-14.63c.11-2.167-.354-4.374-1.38-6.562-3.836-8.182-1.44-20.845-1.416-20.972zM76.392 29.166c-.741-.257-1.464-.478-2.168-.693-2.621-.802-4.884-1.494-6.88-3.735-1.02-1.144-3.332-5.809-3-9.27.053-.55-.35-1.038-.899-1.091-.547-.051-1.038.35-1.091.9-.386 4.01 2.107 9.232 3.496 10.792 2.369 2.659 5.002 3.464 7.789 4.317.682.208 1.381.422 2.099.671 12.212 4.232 11.033 15.322 9.785 27.063-.615 5.786-1.251 11.768-.003 16.61.117.451.522.75.968.75.083 0 .167-.01.251-.032.534-.138.856-.683.719-1.218-1.159-4.491-.569-10.032.054-15.898 1.217-11.442 2.596-24.412-11.119-29.164z"></path>
  <path d="M73.107 45.353c-.542.105-.896.63-.791 1.172.024.127 2.42 12.79-1.416 20.972-1.026 2.188-1.49 4.396-1.379 6.573l.902 14.619c.032.53.473.938.997.938.021 0 .042 0 .062-.002.552-.034.971-.508.937-1.06l-.901-14.608c-.094-1.836.308-3.724 1.192-5.611 4.116-8.777 1.675-21.659 1.568-22.203-.105-.542-.633-.9-1.172-.791zM48.049 29.272h1.209c.419 0 .784.256.883.62l.194.713c.194.682.881 1.159 1.664 1.159s1.47-.477 1.664-1.159l.193-.708c.1-.366.467-.624.889-.624h1.311c.485 0 .922-.18 1.241-.465.395-.353.61-.874.485-1.438-.121-.516-.538-.917-1.065-1.111-.452-.167-.81-.488-.912-.915l-.018-.074c-.079-.329-.51-.454-.809-.25-.823.562-1.859.894-2.98.894-1.134 0-2.18-.339-3.007-.913-.291-.202-.714-.086-.804.234l-.067.238c-.109.388-.433.693-.852.833-.223.074-.447.171-.575.285-.347.31-.548.75-.506 1.233.072.836.923 1.45 1.861 1.45zM47.692 37.001h1.318c.457 0 .854.279.962.676l.212.777c.212.743.96 1.263 1.815 1.263s1.603-.52 1.815-1.263l.21-.772c.109-.399.509-.68.969-.68h1.429c.529 0 1.006-.196 1.353-.507.431-.385.665-.953.529-1.568-.132-.563-.587-1-1.162-1.211-.493-.182-.883-.532-.994-.998l-.019-.081c-.086-.359-.556-.495-.882-.273-.897.613-2.026.975-3.249.975-1.236 0-2.377-.37-3.278-.995-.318-.22-.779-.094-.877.255l-.073.259c-.119.423-.472.755-.929.908-.243.081-.487.186-.627.31-.378.338-.597.818-.552 1.345.079.911 1.007 1.581 2.029 1.581z"></path>
  <path d="M47.041,45.137h1.517c.526,0,.983,.321,1.108,.778l.244,.894c.244,.856,1.105,1.455,2.089,1.455s1.845-.599,2.089-1.455l.242-.889c.125-.46,.586-.783,1.116-.783h1.645c.609,0,1.158-.226,1.558-.583,.496-.443,.766-1.097,.609-1.805-.152-.648-.676-1.151-1.337-1.395-.568-.209-1.016-.612-1.145-1.149l-.022-.093c-.099-.413-.64-.57-1.016-.314-1.033,.706-2.333,1.122-3.74,1.122-1.423,0-2.736-.426-3.774-1.146-.365-.253-.896-.108-1.009,.293l-.084,.299c-.137,.487-.543,.869-1.07,1.045-.28,.093-.561,.214-.721,.357-.435,.389-.688,.941-.635,1.548,.09,1.049,1.159,1.82,2.336,1.82Z"></path>
  <path d="M46.302,54.501h1.743c.604,0,1.13,.369,1.273,.894l.28,1.028c.28,.983,1.27,1.671,2.4,1.671s2.12-.688,2.4-1.671l.278-1.021c.144-.528,.673-.9,1.282-.9h1.89c.7,0,1.33-.259,1.79-.67,.57-.509,.88-1.26,.7-2.073-.175-.744-.776-1.322-1.536-1.602-.652-.24-1.168-.704-1.315-1.32l-.025-.106c-.113-.474-.735-.655-1.167-.361-1.187,.811-2.68,1.289-4.296,1.289-1.635,0-3.143-.489-4.336-1.317-.42-.291-1.03-.124-1.16,.337l-.097,.343c-.158,.559-.624,.999-1.229,1.201-.322,.107-.645,.246-.829,.41-.5,.447-.79,1.081-.73,1.779,.104,1.205,1.331,2.091,2.684,2.091Z"></path>
  <path d="M46.302,63.864h1.743c.604,0,1.13,.369,1.273,.894l.28,1.028c.28,.983,1.27,1.671,2.4,1.671s2.12-.688,2.4-1.671l.278-1.021c.144-.528,.673-.9,1.282-.9h1.89c.7,0,1.33-.259,1.79-.67,.57-.509,.88-1.26,.7-2.073-.175-.744-.776-1.322-1.536-1.602-.652-.24-1.168-.704-1.315-1.32l-.025-.106c-.113-.474-.735-.655-1.167-.361-1.187,.811-2.68,1.289-4.296,1.289-1.635,0-3.143-.489-4.336-1.317-.42-.291-1.03-.124-1.16,.337l-.097,.343c-.158,.559-.624,.999-1.229,1.2-.322,.107-.645,.246-.829,.41-.5,.447-.79,1.081-.73,1.779,.104,1.205,1.331,2.091,2.684,2.091Z"></path>
  <path d="M59.768,69.415c-.745-.24-1.333-.704-1.502-1.32l-.029-.106c-.13-.474-.84-.655-1.332-.361-1.355,.811-3.06,1.289-4.906,1.289-1.867,0-3.589-.489-4.952-1.317-.479-.291-1.176-.124-1.324,.337l-.11,.343c-.18,.559-.713,.999-1.403,1.2-.367,.107-.736,.246-.946,.41-.571,.447-.902,1.081-.834,1.779,.119,1.205,1.52,2.091,3.065,2.091h1.991c.69,0,1.29,.369,1.453,.894l.32,1.028c.32,.983,1.45,1.671,2.741,1.671s2.421-.688,2.741-1.671l.318-1.021c.164-.528,.769-.9,1.464-.9h2.158c.799,0,1.519-.259,2.044-.67,.651-.509,1.005-1.26,.799-2.073-.2-.744-.887-1.322-1.755-1.602Z"></path>
  <path d="M59.768,78.71c-.745-.24-1.333-.704-1.502-1.32l-.029-.107c-.13-.474-.84-.655-1.332-.361-1.355,.811-3.06,1.289-4.906,1.289-1.867,0-3.589-.49-4.952-1.317-.479-.291-1.176-.124-1.324,.337l-.11,.343c-.18,.559-.713,.999-1.403,1.201-.367,.107-.736,.246-.946,.41-.571,.447-.902,1.081-.834,1.779,.119,1.205,1.52,2.091,3.065,2.091h1.991c.69,0,1.29,.369,1.453,.894l.32,1.028c.32,.983,1.45,1.671,2.741,1.671s2.421-.688,2.741-1.671l.318-1.021c.164-.528,.769-.9,1.464-.9h2.158c.799,0,1.519-.259,2.044-.67,.651-.509,1.005-1.26,.799-2.073-.2-.744-.887-1.322-1.755-1.602Z"></path>
</svg>
