<svg width="40" height="40" viewBox="0 0 40 40" fill="none" xmlns="http://www.w3.org/2000/svg">
<path d="M20 5C16.3575 5 13.4175 7.895 13.2025 11.485C9.97504 10.85 6.63128 12.5288 5.43003 15.7025C4.18003 19.0038 5.75253 22.6125 8.82753 24.18C6.78253 27.06 7.21253 31.0887 9.96128 33.3988C12.8563 35.835 17.2163 35.435 19.6488 32.5387C19.7988 32.3587 19.8388 32.1138 19.9613 31.9137C20.0925 32.1287 20.1463 32.3825 20.3125 32.5788C22.75 35.4737 27.105 35.8738 30 33.4375C32.7538 31.1187 33.1538 27.1 31.0938 24.2188C34.2238 22.6712 35.8313 19.0288 34.57 15.7025C33.37 12.5288 30.02 10.85 26.7975 11.485C26.5813 7.895 23.6413 5 20 5ZM20 7.5C22.4313 7.5 24.375 9.44375 24.375 11.875C24.375 12.07 24.2925 12.4225 24.14 12.8513C24.1363 12.8663 24.145 12.8763 24.14 12.89L20.43 18.165C20.82 16.875 21.25 15.4087 21.25 15C21.25 14.3125 20.6875 13.75 20 13.75C19.3125 13.75 18.75 14.3125 18.75 15C18.75 15.395 19.0913 16.7825 19.4138 18.0475L15.7813 12.5775C15.6988 12.29 15.625 12.0312 15.625 11.875C15.625 9.44375 17.5688 7.5 20 7.5ZM11.7188 13.75C12.29 13.73 12.8713 13.8088 13.4375 14.0238C13.535 14.0575 13.6963 14.19 13.9063 14.3363C13.9213 14.3462 13.9313 14.3263 13.945 14.3363L17.4213 19.61C16.3288 18.8675 15.1075 18.0662 14.7263 17.93C14.4155 17.816 14.0721 17.83 13.7717 17.9692C13.4713 18.1083 13.2385 18.3611 13.1244 18.6719C13.0104 18.9827 13.0245 19.326 13.1636 19.6265C13.3027 19.9269 13.5555 20.1597 13.8663 20.2738C14.2438 20.4113 15.7075 20.5125 17.0313 20.5863L10.7025 22.3438C10.5425 22.315 10.405 22.2612 10.3125 22.2262C9.77282 22.0226 9.27872 21.7142 8.85866 21.3188C8.43859 20.9235 8.10087 20.4489 7.86491 19.9225C7.62896 19.3961 7.49943 18.8283 7.48379 18.2516C7.46815 17.675 7.56671 17.1009 7.77378 16.5625C8.07976 15.7563 8.61781 15.0588 9.31996 14.5583C10.0221 14.0577 10.8569 13.7764 11.7188 13.75ZM28.2813 13.75C29.1432 13.7764 29.978 14.0577 30.6801 14.5583C31.3823 15.0588 31.9203 15.7563 32.2263 16.5625C32.4327 17.101 32.5307 17.6749 32.5147 18.2514C32.4988 18.8278 32.3691 19.3954 32.1333 19.9217C31.8974 20.4479 31.5599 20.9224 31.1402 21.3178C30.7205 21.7133 30.2268 22.022 29.6875 22.2262C29.4221 22.3134 29.1464 22.3659 28.8675 22.3825L22.7738 20.5863C24.1363 20.5125 25.7325 20.42 26.1325 20.2738C26.2864 20.2174 26.4277 20.1312 26.5483 20.0202C26.6689 19.9092 26.7665 19.7756 26.8354 19.6269C26.9044 19.4782 26.9433 19.3174 26.9501 19.1536C26.9569 18.9899 26.9314 18.8264 26.875 18.6725C26.8186 18.5186 26.7325 18.3773 26.6215 18.2567C26.5105 18.1361 26.3769 18.0386 26.2282 17.9696C26.0795 17.9007 25.9187 17.8617 25.7549 17.8549C25.5912 17.8481 25.4277 17.8736 25.2738 17.93C24.8588 18.0763 23.5013 18.965 22.3825 19.7262L26.1725 14.2575C26.3288 14.15 26.485 14.0525 26.5625 14.0238C27.1113 13.8183 27.6958 13.7252 28.2813 13.75ZM17.89 22.9688C16.7775 23.745 15.41 24.7025 15.1175 25.0387C14.6675 25.5613 14.7513 26.3862 15.2738 26.8363C15.5278 27.048 15.8554 27.1504 16.1848 27.1211C16.5142 27.0919 16.8186 26.9332 17.0313 26.68C17.3688 26.2887 18.2375 24.3113 18.75 23.125V27.735C18.52 29.2337 18.0663 30.5425 17.7338 30.9375C17.366 31.3807 16.914 31.7468 16.404 32.0144C15.8939 32.2821 15.336 32.4461 14.7622 32.497C14.1885 32.5479 13.6104 32.4847 13.0612 32.311C12.512 32.1373 12.0027 31.8566 11.5625 31.485C11.1191 31.1172 10.7529 30.6651 10.4852 30.155C10.2174 29.6449 10.0533 29.0867 10.0024 28.5128C9.95151 27.939 10.0148 27.3607 10.1886 26.8114C10.3624 26.2621 10.6433 25.7527 11.015 25.3125C11.1475 25.1562 11.45 24.9212 11.8363 24.6875L11.9925 24.6087L17.89 22.9688ZM22.2275 23.0475L28.2025 24.7663C28.55 24.985 28.8238 25.205 28.945 25.3512C29.3161 25.7917 29.5964 26.3011 29.7698 26.8503C29.9433 27.3994 30.0064 27.9775 29.9556 28.5511C29.9049 29.1248 29.7412 29.6827 29.474 30.1929C29.2068 30.703 28.8414 31.1553 28.3988 31.5238C27.9583 31.8947 27.4488 32.1749 26.8996 32.3483C26.3504 32.5216 25.7723 32.5846 25.1987 32.5338C24.625 32.4829 24.0671 32.3191 23.557 32.0518C23.0469 31.7845 22.5946 31.419 22.2263 30.9762C21.9088 30.6012 21.485 29.38 21.25 27.9688V23.125C21.7625 24.3125 22.6313 26.2887 22.9688 26.68C23.4188 27.2025 24.2038 27.285 24.7263 26.8363C25.2488 26.3862 25.3325 25.5613 24.8825 25.0387C24.605 24.7162 23.3313 23.8188 22.2275 23.0475Z" fill="#E5641E"/>
</svg>
